<?xml version="1.0" encoding="UTF-8" standalone="no"?>
<!DOCTYPE svg PUBLIC "-//W3C//DTD SVG 1.1//EN"
 "http://www.w3.org/Graphics/SVG/1.1/DTD/svg11.dtd">
<!-- Generated by graphviz version 2.47.0 (20210316.0004)
 -->
<!-- Title: dependencies Pages: 1 -->
<svg width="5923pt" height="284pt"
 viewBox="0.00 0.00 5923.00 284.00" xmlns="http://www.w3.org/2000/svg" xmlns:xlink="http://www.w3.org/1999/xlink">
<g id="graph0" class="graph" transform="scale(1 1) rotate(0) translate(4 280)">
<title>dependencies</title>
<polygon fill="white" stroke="transparent" points="-4,4 -4,-280 5919,-280 5919,4 -4,4"/>
<text text-anchor="start" x="2936.51" y="-42.4" font-family="Times-12" font-weight="bold" font-size="14.00">Legend</text>
<polygon fill="#ffffb3" stroke="transparent" points="2723.5,-10 2723.5,-30 2743.5,-30 2743.5,-10 2723.5,-10"/>
<text text-anchor="start" x="2747.13" y="-15.4" font-family="Times-12" font-size="14.00"> &#160;Declarations</text>
<polygon fill="#8dd3c7" stroke="transparent" points="2836.5,-10 2836.5,-30 2856.5,-30 2856.5,-10 2836.5,-10"/>
<text text-anchor="start" x="2860.23" y="-15.4" font-family="Times-12" font-size="14.00"> &#160;Module</text>
<polygon fill="#80b1d3" stroke="transparent" points="2922.5,-10 2922.5,-30 2942.5,-30 2942.5,-10 2922.5,-10"/>
<text text-anchor="start" x="2946.28" y="-15.4" font-family="Times-12" font-size="14.00"> &#160;Bootstrap</text>
<polygon fill="#fdb462" stroke="transparent" points="3019.5,-10 3019.5,-30 3039.5,-30 3039.5,-10 3019.5,-10"/>
<text text-anchor="start" x="3043.17" y="-15.4" font-family="Times-12" font-size="14.00"> &#160;Providers</text>
<polygon fill="#fb8072" stroke="transparent" points="3115.5,-10 3115.5,-30 3135.5,-30 3135.5,-10 3115.5,-10"/>
<text text-anchor="start" x="3139.23" y="-15.4" font-family="Times-12" font-size="14.00"> &#160;Exports</text>
<g id="clust1" class="cluster">
<title>cluster_AppModule</title>
<polygon fill="none" stroke="black" stroke-dasharray="1,5" points="8,-70 8,-268 5907,-268 5907,-70 8,-70"/>
</g>
<g id="clust2" class="cluster">
<title>cluster_AppModule_declarations</title>
<polygon fill="none" stroke="black" points="314,-78 314,-130 5899,-130 5899,-78 314,-78"/>
</g>
<g id="clust34" class="cluster">
<title>cluster_AppModule_imports</title>
<polygon fill="none" stroke="black" points="16,-78 16,-130 306,-130 306,-78 16,-78"/>
</g>
<g id="clust36" class="cluster">
<title>cluster_AppModule_bootstrap</title>
<polygon fill="none" stroke="black" points="2963,-208 2963,-260 3087,-260 3087,-208 2963,-208"/>
</g>
<!-- AddFeatureDialogComponent -->
<g id="node1" class="node">
<title>AddFeatureDialogComponent</title>
<polygon fill="#ffffb3" stroke="black" points="5890.52,-122 5705.48,-122 5705.48,-86 5890.52,-86 5890.52,-122"/>
<text text-anchor="middle" x="5798" y="-99.8" font-family="Times,serif" font-size="14.00">AddFeatureDialogComponent</text>
</g>
<!-- AppModule -->
<g id="node32" class="node">
<title>AppModule</title>
<polygon fill="#8dd3c7" stroke="black" points="3066.66,-187 3063.66,-191 3042.66,-191 3039.66,-187 2983.34,-187 2983.34,-151 3066.66,-151 3066.66,-187"/>
<text text-anchor="middle" x="3025" y="-164.8" font-family="Times,serif" font-size="14.00">AppModule</text>
</g>
<!-- AddFeatureDialogComponent&#45;&gt;AppModule -->
<g id="edge1" class="edge">
<title>AddFeatureDialogComponent&#45;&gt;AppModule</title>
<path fill="none" stroke="black" d="M5798,-122.38C5798,-146.28 5798,-185 5798,-185 5798,-185 3076.9,-185 3076.9,-185"/>
<polygon fill="black" stroke="black" points="3076.9,-181.5 3066.9,-185 3076.9,-188.5 3076.9,-181.5"/>
</g>
<!-- AddMemberComponent -->
<g id="node2" class="node">
<title>AddMemberComponent</title>
<polygon fill="#ffffb3" stroke="black" points="5687.36,-122 5534.64,-122 5534.64,-86 5687.36,-86 5687.36,-122"/>
<text text-anchor="middle" x="5611" y="-99.8" font-family="Times,serif" font-size="14.00">AddMemberComponent</text>
</g>
<!-- AddMemberComponent&#45;&gt;AppModule -->
<g id="edge2" class="edge">
<title>AddMemberComponent&#45;&gt;AppModule</title>
<path fill="none" stroke="black" d="M5611,-122.32C5611,-145.66 5611,-183 5611,-183 5611,-183 3076.67,-183 3076.67,-183"/>
<polygon fill="black" stroke="black" points="3076.67,-179.5 3066.67,-183 3076.67,-186.5 3076.67,-179.5"/>
</g>
<!-- AddMicroserviceComponent -->
<g id="node3" class="node">
<title>AddMicroserviceComponent</title>
<polygon fill="#ffffb3" stroke="black" points="5516.79,-122 5337.21,-122 5337.21,-86 5516.79,-86 5516.79,-122"/>
<text text-anchor="middle" x="5427" y="-99.8" font-family="Times,serif" font-size="14.00">AddMicroserviceComponent</text>
</g>
<!-- AddMicroserviceComponent&#45;&gt;AppModule -->
<g id="edge3" class="edge">
<title>AddMicroserviceComponent&#45;&gt;AppModule</title>
<path fill="none" stroke="black" d="M5427,-122.25C5427,-145.02 5427,-181 5427,-181 5427,-181 3076.69,-181 3076.69,-181"/>
<polygon fill="black" stroke="black" points="3076.69,-177.5 3066.69,-181 3076.69,-184.5 3076.69,-177.5"/>
</g>
<!-- AddModelArtifactDialogComponent -->
<g id="node4" class="node">
<title>AddModelArtifactDialogComponent</title>
<polygon fill="#ffffb3" stroke="black" points="5319.62,-122 5096.38,-122 5096.38,-86 5319.62,-86 5319.62,-122"/>
<text text-anchor="middle" x="5208" y="-99.8" font-family="Times,serif" font-size="14.00">AddModelArtifactDialogComponent</text>
</g>
<!-- AddModelArtifactDialogComponent&#45;&gt;AppModule -->
<g id="edge4" class="edge">
<title>AddModelArtifactDialogComponent&#45;&gt;AppModule</title>
<path fill="none" stroke="black" d="M5208,-122.16C5208,-144.35 5208,-179 5208,-179 5208,-179 3076.66,-179 3076.66,-179"/>
<polygon fill="black" stroke="black" points="3076.66,-175.5 3066.66,-179 3076.66,-182.5 3076.66,-175.5"/>
</g>
<!-- AddStoryComponent -->
<g id="node5" class="node">
<title>AddStoryComponent</title>
<polygon fill="#ffffb3" stroke="black" points="5077.77,-122 4942.23,-122 4942.23,-86 5077.77,-86 5077.77,-122"/>
<text text-anchor="middle" x="5010" y="-99.8" font-family="Times,serif" font-size="14.00">AddStoryComponent</text>
</g>
<!-- AddStoryComponent&#45;&gt;AppModule -->
<g id="edge5" class="edge">
<title>AddStoryComponent&#45;&gt;AppModule</title>
<path fill="none" stroke="black" d="M5010,-122.04C5010,-143.66 5010,-177 5010,-177 5010,-177 3076.92,-177 3076.92,-177"/>
<polygon fill="black" stroke="black" points="3076.92,-173.5 3066.92,-177 3076.92,-180.5 3076.92,-173.5"/>
</g>
<!-- AddTeamComponent -->
<g id="node6" class="node">
<title>AddTeamComponent</title>
<polygon fill="#ffffb3" stroke="black" points="4923.81,-122 4786.19,-122 4786.19,-86 4923.81,-86 4923.81,-122"/>
<text text-anchor="middle" x="4855" y="-99.8" font-family="Times,serif" font-size="14.00">AddTeamComponent</text>
</g>
<!-- AddTeamComponent&#45;&gt;AppModule -->
<g id="edge6" class="edge">
<title>AddTeamComponent&#45;&gt;AppModule</title>
<path fill="none" stroke="black" d="M4855,-122.28C4855,-143.32 4855,-175 4855,-175 4855,-175 3076.66,-175 3076.66,-175"/>
<polygon fill="black" stroke="black" points="3076.66,-171.5 3066.66,-175 3076.66,-178.5 3076.66,-171.5"/>
</g>
<!-- AppComponent -->
<g id="node7" class="node">
<title>AppComponent</title>
<polygon fill="#ffffb3" stroke="black" points="4768.94,-122 4663.06,-122 4663.06,-86 4768.94,-86 4768.94,-122"/>
<text text-anchor="middle" x="4716" y="-99.8" font-family="Times,serif" font-size="14.00">AppComponent</text>
</g>
<!-- AppComponent&#45;&gt;AppModule -->
<g id="edge7" class="edge">
<title>AppComponent&#45;&gt;AppModule</title>
<path fill="none" stroke="black" d="M4716,-122.13C4716,-142.57 4716,-173 4716,-173 4716,-173 3076.8,-173 3076.8,-173"/>
<polygon fill="black" stroke="black" points="3076.8,-169.5 3066.8,-173 3076.8,-176.5 3076.8,-169.5"/>
</g>
<!-- DashboardComponent -->
<g id="node8" class="node">
<title>DashboardComponent</title>
<polygon fill="#ffffb3" stroke="black" points="4644.97,-122 4503.03,-122 4503.03,-86 4644.97,-86 4644.97,-122"/>
<text text-anchor="middle" x="4574" y="-99.8" font-family="Times,serif" font-size="14.00">DashboardComponent</text>
</g>
<!-- DashboardComponent&#45;&gt;AppModule -->
<g id="edge8" class="edge">
<title>DashboardComponent&#45;&gt;AppModule</title>
<path fill="none" stroke="black" d="M4574,-122.31C4574,-142.15 4574,-171 4574,-171 4574,-171 3076.83,-171 3076.83,-171"/>
<polygon fill="black" stroke="black" points="3076.83,-167.5 3066.83,-171 3076.83,-174.5 3076.83,-167.5"/>
</g>
<!-- DeleteSystemDialogComponent -->
<g id="node9" class="node">
<title>DeleteSystemDialogComponent</title>
<polygon fill="#ffffb3" stroke="black" points="4484.69,-122 4287.31,-122 4287.31,-86 4484.69,-86 4484.69,-122"/>
<text text-anchor="middle" x="4386" y="-99.8" font-family="Times,serif" font-size="14.00">DeleteSystemDialogComponent</text>
</g>
<!-- DeleteSystemDialogComponent&#45;&gt;AppModule -->
<g id="edge9" class="edge">
<title>DeleteSystemDialogComponent&#45;&gt;AppModule</title>
<path fill="none" stroke="black" d="M4386,-122.17C4386,-141.09 4386,-168 4386,-168 4386,-168 3076.85,-168 3076.85,-168"/>
<polygon fill="black" stroke="black" points="3076.85,-164.5 3066.85,-168 3076.85,-171.5 3076.85,-164.5"/>
</g>
<!-- EditMemberComponent -->
<g id="node10" class="node">
<title>EditMemberComponent</title>
<polygon fill="#ffffb3" stroke="black" points="4269.09,-122 4116.91,-122 4116.91,-86 4269.09,-86 4269.09,-122"/>
<text text-anchor="middle" x="4193" y="-99.8" font-family="Times,serif" font-size="14.00">EditMemberComponent</text>
</g>
<!-- EditMemberComponent&#45;&gt;AppModule -->
<g id="edge10" class="edge">
<title>EditMemberComponent&#45;&gt;AppModule</title>
<path fill="none" stroke="black" d="M4193,-122.27C4193,-140.56 4193,-166 4193,-166 4193,-166 3076.91,-166 3076.91,-166"/>
<polygon fill="black" stroke="black" points="3076.91,-162.5 3066.91,-166 3076.91,-169.5 3076.91,-162.5"/>
</g>
<!-- EditMicroserviceComponent -->
<g id="node11" class="node">
<title>EditMicroserviceComponent</title>
<polygon fill="#ffffb3" stroke="black" points="4099.02,-122 3920.98,-122 3920.98,-86 4099.02,-86 4099.02,-122"/>
<text text-anchor="middle" x="4010" y="-99.8" font-family="Times,serif" font-size="14.00">EditMicroserviceComponent</text>
</g>
<!-- EditMicroserviceComponent&#45;&gt;AppModule -->
<g id="edge11" class="edge">
<title>EditMicroserviceComponent&#45;&gt;AppModule</title>
<path fill="none" stroke="black" d="M4010,-122C4010,-139.68 4010,-164 4010,-164 4010,-164 3076.7,-164 3076.7,-164"/>
<polygon fill="black" stroke="black" points="3076.7,-160.5 3066.7,-164 3076.7,-167.5 3076.7,-160.5"/>
</g>
<!-- EditStoryComponent -->
<g id="node12" class="node">
<title>EditStoryComponent</title>
<polygon fill="#ffffb3" stroke="black" points="3902.5,-122 3767.5,-122 3767.5,-86 3902.5,-86 3902.5,-122"/>
<text text-anchor="middle" x="3835" y="-99.8" font-family="Times,serif" font-size="14.00">EditStoryComponent</text>
</g>
<!-- EditStoryComponent&#45;&gt;AppModule -->
<g id="edge12" class="edge">
<title>EditStoryComponent&#45;&gt;AppModule</title>
<path fill="none" stroke="black" d="M3835,-122.03C3835,-139.06 3835,-162 3835,-162 3835,-162 3076.84,-162 3076.84,-162"/>
<polygon fill="black" stroke="black" points="3076.84,-158.5 3066.84,-162 3076.84,-165.5 3076.84,-158.5"/>
</g>
<!-- EditTeamComponent -->
<g id="node13" class="node">
<title>EditTeamComponent</title>
<polygon fill="#ffffb3" stroke="black" points="3749.04,-122 3612.96,-122 3612.96,-86 3749.04,-86 3749.04,-122"/>
<text text-anchor="middle" x="3681" y="-99.8" font-family="Times,serif" font-size="14.00">EditTeamComponent</text>
</g>
<!-- EditTeamComponent&#45;&gt;AppModule -->
<g id="edge13" class="edge">
<title>EditTeamComponent&#45;&gt;AppModule</title>
<path fill="none" stroke="black" d="M3681,-122.03C3681,-138.4 3681,-160 3681,-160 3681,-160 3076.78,-160 3076.78,-160"/>
<polygon fill="black" stroke="black" points="3076.78,-156.5 3066.78,-160 3076.78,-163.5 3076.78,-156.5"/>
</g>
<!-- ErrorPageComponent -->
<g id="node14" class="node">
<title>ErrorPageComponent</title>
<polygon fill="#ffffb3" stroke="black" points="3595.08,-122 3456.92,-122 3456.92,-86 3595.08,-86 3595.08,-122"/>
<text text-anchor="middle" x="3526" y="-99.8" font-family="Times,serif" font-size="14.00">ErrorPageComponent</text>
</g>
<!-- ErrorPageComponent&#45;&gt;AppModule -->
<g id="edge14" class="edge">
<title>ErrorPageComponent&#45;&gt;AppModule</title>
<path fill="none" stroke="black" d="M3526,-122.28C3526,-137.95 3526,-158 3526,-158 3526,-158 3076.85,-158 3076.85,-158"/>
<polygon fill="black" stroke="black" points="3076.85,-154.5 3066.85,-158 3076.85,-161.5 3076.85,-154.5"/>
</g>
<!-- MembersComponent -->
<g id="node15" class="node">
<title>MembersComponent</title>
<polygon fill="#ffffb3" stroke="black" points="3439.2,-122 3304.8,-122 3304.8,-86 3439.2,-86 3439.2,-122"/>
<text text-anchor="middle" x="3372" y="-99.8" font-family="Times,serif" font-size="14.00">MembersComponent</text>
</g>
<!-- MembersComponent&#45;&gt;AppModule -->
<g id="edge15" class="edge">
<title>MembersComponent&#45;&gt;AppModule</title>
<path fill="none" stroke="black" d="M3372,-122.19C3372,-137.18 3372,-156 3372,-156 3372,-156 3076.86,-156 3076.86,-156"/>
<polygon fill="black" stroke="black" points="3076.86,-152.5 3066.86,-156 3076.86,-159.5 3076.86,-152.5"/>
</g>
<!-- MicroservicesComponent -->
<g id="node16" class="node">
<title>MicroservicesComponent</title>
<polygon fill="#ffffb3" stroke="black" points="3287.13,-122 3126.87,-122 3126.87,-86 3287.13,-86 3287.13,-122"/>
<text text-anchor="middle" x="3207" y="-99.8" font-family="Times,serif" font-size="14.00">MicroservicesComponent</text>
</g>
<!-- MicroservicesComponent&#45;&gt;AppModule -->
<g id="edge16" class="edge">
<title>MicroservicesComponent&#45;&gt;AppModule</title>
<path fill="none" stroke="black" d="M3207,-122.05C3207,-136.37 3207,-154 3207,-154 3207,-154 3076.75,-154 3076.75,-154"/>
<polygon fill="black" stroke="black" points="3076.75,-150.5 3066.75,-154 3076.75,-157.5 3076.75,-150.5"/>
</g>
<!-- ModelArtifactsComponent -->
<g id="node17" class="node">
<title>ModelArtifactsComponent</title>
<polygon fill="#ffffb3" stroke="black" points="3108.36,-122 2941.64,-122 2941.64,-86 3108.36,-86 3108.36,-122"/>
<text text-anchor="middle" x="3025" y="-99.8" font-family="Times,serif" font-size="14.00">ModelArtifactsComponent</text>
</g>
<!-- ModelArtifactsComponent&#45;&gt;AppModule -->
<g id="edge17" class="edge">
<title>ModelArtifactsComponent&#45;&gt;AppModule</title>
<path fill="none" stroke="black" d="M3025,-122.11C3025,-122.11 3025,-140.99 3025,-140.99"/>
<polygon fill="black" stroke="black" points="3021.5,-140.99 3025,-150.99 3028.5,-140.99 3021.5,-140.99"/>
</g>
<!-- NewSystemComponent -->
<g id="node18" class="node">
<title>NewSystemComponent</title>
<polygon fill="#ffffb3" stroke="black" points="2923.48,-122 2774.52,-122 2774.52,-86 2923.48,-86 2923.48,-122"/>
<text text-anchor="middle" x="2849" y="-99.8" font-family="Times,serif" font-size="14.00">NewSystemComponent</text>
</g>
<!-- NewSystemComponent&#45;&gt;AppModule -->
<g id="edge18" class="edge">
<title>NewSystemComponent&#45;&gt;AppModule</title>
<path fill="none" stroke="black" d="M2849,-122.05C2849,-136.37 2849,-154 2849,-154 2849,-154 2973.29,-154 2973.29,-154"/>
<polygon fill="black" stroke="black" points="2973.29,-157.5 2983.29,-154 2973.29,-150.5 2973.29,-157.5"/>
</g>
<!-- SelectMemberDialogComponent -->
<g id="node19" class="node">
<title>SelectMemberDialogComponent</title>
<polygon fill="#ffffb3" stroke="black" points="2756.57,-122 2555.43,-122 2555.43,-86 2756.57,-86 2756.57,-122"/>
<text text-anchor="middle" x="2656" y="-99.8" font-family="Times,serif" font-size="14.00">SelectMemberDialogComponent</text>
</g>
<!-- SelectMemberDialogComponent&#45;&gt;AppModule -->
<g id="edge19" class="edge">
<title>SelectMemberDialogComponent&#45;&gt;AppModule</title>
<path fill="none" stroke="black" d="M2656,-122.19C2656,-137.18 2656,-156 2656,-156 2656,-156 2973.03,-156 2973.03,-156"/>
<polygon fill="black" stroke="black" points="2973.03,-159.5 2983.03,-156 2973.03,-152.5 2973.03,-159.5"/>
</g>
<!-- SelectMicroserviceDialogComponent -->
<g id="node20" class="node">
<title>SelectMicroserviceDialogComponent</title>
<polygon fill="#ffffb3" stroke="black" points="2537.99,-122 2310.01,-122 2310.01,-86 2537.99,-86 2537.99,-122"/>
<text text-anchor="middle" x="2424" y="-99.8" font-family="Times,serif" font-size="14.00">SelectMicroserviceDialogComponent</text>
</g>
<!-- SelectMicroserviceDialogComponent&#45;&gt;AppModule -->
<g id="edge20" class="edge">
<title>SelectMicroserviceDialogComponent&#45;&gt;AppModule</title>
<path fill="none" stroke="black" d="M2424,-122.28C2424,-137.95 2424,-158 2424,-158 2424,-158 2973.22,-158 2973.22,-158"/>
<polygon fill="black" stroke="black" points="2973.22,-161.5 2983.22,-158 2973.22,-154.5 2973.22,-161.5"/>
</g>
<!-- ServiceStoriesComponent -->
<g id="node21" class="node">
<title>ServiceStoriesComponent</title>
<polygon fill="#ffffb3" stroke="black" points="2292.19,-122 2129.81,-122 2129.81,-86 2292.19,-86 2292.19,-122"/>
<text text-anchor="middle" x="2211" y="-99.8" font-family="Times,serif" font-size="14.00">ServiceStoriesComponent</text>
</g>
<!-- ServiceStoriesComponent&#45;&gt;AppModule -->
<g id="edge21" class="edge">
<title>ServiceStoriesComponent&#45;&gt;AppModule</title>
<path fill="none" stroke="black" d="M2211,-122.03C2211,-138.4 2211,-160 2211,-160 2211,-160 2973.23,-160 2973.23,-160"/>
<polygon fill="black" stroke="black" points="2973.23,-163.5 2983.23,-160 2973.23,-156.5 2973.23,-163.5"/>
</g>
<!-- SystemComponent -->
<g id="node22" class="node">
<title>SystemComponent</title>
<polygon fill="#ffffb3" stroke="black" points="2112.06,-122 1989.94,-122 1989.94,-86 2112.06,-86 2112.06,-122"/>
<text text-anchor="middle" x="2051" y="-99.8" font-family="Times,serif" font-size="14.00">SystemComponent</text>
</g>
<!-- SystemComponent&#45;&gt;AppModule -->
<g id="edge22" class="edge">
<title>SystemComponent&#45;&gt;AppModule</title>
<path fill="none" stroke="black" d="M2051,-122.03C2051,-139.06 2051,-162 2051,-162 2051,-162 2973.15,-162 2973.15,-162"/>
<polygon fill="black" stroke="black" points="2973.15,-165.5 2983.15,-162 2973.15,-158.5 2973.15,-165.5"/>
</g>
<!-- TeamsComponent -->
<g id="node23" class="node">
<title>TeamsComponent</title>
<polygon fill="#ffffb3" stroke="black" points="1971.15,-122 1852.85,-122 1852.85,-86 1971.15,-86 1971.15,-122"/>
<text text-anchor="middle" x="1912" y="-99.8" font-family="Times,serif" font-size="14.00">TeamsComponent</text>
</g>
<!-- TeamsComponent&#45;&gt;AppModule -->
<g id="edge23" class="edge">
<title>TeamsComponent&#45;&gt;AppModule</title>
<path fill="none" stroke="black" d="M1912,-122C1912,-139.68 1912,-164 1912,-164 1912,-164 2973.06,-164 2973.06,-164"/>
<polygon fill="black" stroke="black" points="2973.06,-167.5 2983.06,-164 2973.06,-160.5 2973.06,-167.5"/>
</g>
<!-- TruncatePipe -->
<g id="node24" class="node">
<title>TruncatePipe</title>
<polygon fill="#ffffb3" stroke="black" points="1834.14,-122 1743.86,-122 1743.86,-86 1834.14,-86 1834.14,-122"/>
<text text-anchor="middle" x="1789" y="-99.8" font-family="Times,serif" font-size="14.00">TruncatePipe</text>
</g>
<!-- TruncatePipe&#45;&gt;AppModule -->
<g id="edge24" class="edge">
<title>TruncatePipe&#45;&gt;AppModule</title>
<path fill="none" stroke="black" d="M1789,-122.27C1789,-140.56 1789,-166 1789,-166 1789,-166 2973.17,-166 2973.17,-166"/>
<polygon fill="black" stroke="black" points="2973.17,-169.5 2983.17,-166 2973.17,-162.5 2973.17,-169.5"/>
</g>
<!-- ViewArtifactDialogComponent -->
<g id="node25" class="node">
<title>ViewArtifactDialogComponent</title>
<polygon fill="#ffffb3" stroke="black" points="1725.78,-122 1532.22,-122 1532.22,-86 1725.78,-86 1725.78,-122"/>
<text text-anchor="middle" x="1629" y="-99.8" font-family="Times,serif" font-size="14.00">ViewArtifactDialogComponent</text>
</g>
<!-- ViewArtifactDialogComponent&#45;&gt;AppModule -->
<g id="edge25" class="edge">
<title>ViewArtifactDialogComponent&#45;&gt;AppModule</title>
<path fill="none" stroke="black" d="M1629,-122.17C1629,-141.09 1629,-168 1629,-168 1629,-168 2973.22,-168 2973.22,-168"/>
<polygon fill="black" stroke="black" points="2973.22,-171.5 2983.22,-168 2973.22,-164.5 2973.22,-171.5"/>
</g>
<!-- ViewMicroserviceComponent -->
<g id="node26" class="node">
<title>ViewMicroserviceComponent</title>
<polygon fill="#ffffb3" stroke="black" points="1514.5,-122 1329.5,-122 1329.5,-86 1514.5,-86 1514.5,-122"/>
<text text-anchor="middle" x="1422" y="-99.8" font-family="Times,serif" font-size="14.00">ViewMicroserviceComponent</text>
</g>
<!-- ViewMicroserviceComponent&#45;&gt;AppModule -->
<g id="edge26" class="edge">
<title>ViewMicroserviceComponent&#45;&gt;AppModule</title>
<path fill="none" stroke="black" d="M1422,-122.31C1422,-142.15 1422,-171 1422,-171 1422,-171 2972.95,-171 2972.95,-171"/>
<polygon fill="black" stroke="black" points="2972.95,-174.5 2982.95,-171 2972.95,-167.5 2972.95,-174.5"/>
</g>
<!-- WidgetMembersComponent -->
<g id="node27" class="node">
<title>WidgetMembersComponent</title>
<polygon fill="#ffffb3" stroke="black" points="1311.91,-122 1136.09,-122 1136.09,-86 1311.91,-86 1311.91,-122"/>
<text text-anchor="middle" x="1224" y="-99.8" font-family="Times,serif" font-size="14.00">WidgetMembersComponent</text>
</g>
<!-- WidgetMembersComponent&#45;&gt;AppModule -->
<g id="edge27" class="edge">
<title>WidgetMembersComponent&#45;&gt;AppModule</title>
<path fill="none" stroke="black" d="M1224,-122.13C1224,-142.57 1224,-173 1224,-173 1224,-173 2973.13,-173 2973.13,-173"/>
<polygon fill="black" stroke="black" points="2973.13,-176.5 2983.13,-173 2973.13,-169.5 2973.13,-176.5"/>
</g>
<!-- WidgetMicroservicesComponent -->
<g id="node28" class="node">
<title>WidgetMicroservicesComponent</title>
<polygon fill="#ffffb3" stroke="black" points="1117.84,-122 916.16,-122 916.16,-86 1117.84,-86 1117.84,-122"/>
<text text-anchor="middle" x="1017" y="-99.8" font-family="Times,serif" font-size="14.00">WidgetMicroservicesComponent</text>
</g>
<!-- WidgetMicroservicesComponent&#45;&gt;AppModule -->
<g id="edge28" class="edge">
<title>WidgetMicroservicesComponent&#45;&gt;AppModule</title>
<path fill="none" stroke="black" d="M1017,-122.28C1017,-143.32 1017,-175 1017,-175 1017,-175 2973.06,-175 2973.06,-175"/>
<polygon fill="black" stroke="black" points="2973.06,-178.5 2983.06,-175 2973.06,-171.5 2973.06,-178.5"/>
</g>
<!-- WidgetStoriesComponent -->
<g id="node29" class="node">
<title>WidgetStoriesComponent</title>
<polygon fill="#ffffb3" stroke="black" points="897.93,-122 736.07,-122 736.07,-86 897.93,-86 897.93,-122"/>
<text text-anchor="middle" x="817" y="-99.8" font-family="Times,serif" font-size="14.00">WidgetStoriesComponent</text>
</g>
<!-- WidgetStoriesComponent&#45;&gt;AppModule -->
<g id="edge29" class="edge">
<title>WidgetStoriesComponent&#45;&gt;AppModule</title>
<path fill="none" stroke="black" d="M817,-122.04C817,-143.66 817,-177 817,-177 817,-177 2972.86,-177 2972.86,-177"/>
<polygon fill="black" stroke="black" points="2972.86,-180.5 2982.86,-177 2972.86,-173.5 2972.86,-180.5"/>
</g>
<!-- WidgetSystemOverviewComponent -->
<g id="node30" class="node">
<title>WidgetSystemOverviewComponent</title>
<polygon fill="#ffffb3" stroke="black" points="718.46,-122 499.54,-122 499.54,-86 718.46,-86 718.46,-122"/>
<text text-anchor="middle" x="609" y="-99.8" font-family="Times,serif" font-size="14.00">WidgetSystemOverviewComponent</text>
</g>
<!-- WidgetSystemOverviewComponent&#45;&gt;AppModule -->
<g id="edge30" class="edge">
<title>WidgetSystemOverviewComponent&#45;&gt;AppModule</title>
<path fill="none" stroke="black" d="M609,-122.16C609,-144.35 609,-179 609,-179 609,-179 2973.32,-179 2973.32,-179"/>
<polygon fill="black" stroke="black" points="2973.32,-182.5 2983.32,-179 2973.32,-175.5 2973.32,-182.5"/>
</g>
<!-- WidgetTeamsComponent -->
<g id="node31" class="node">
<title>WidgetTeamsComponent</title>
<polygon fill="#ffffb3" stroke="black" points="481.86,-122 322.14,-122 322.14,-86 481.86,-86 481.86,-122"/>
<text text-anchor="middle" x="402" y="-99.8" font-family="Times,serif" font-size="14.00">WidgetTeamsComponent</text>
</g>
<!-- WidgetTeamsComponent&#45;&gt;AppModule -->
<g id="edge31" class="edge">
<title>WidgetTeamsComponent&#45;&gt;AppModule</title>
<path fill="none" stroke="black" d="M402,-122.25C402,-145.02 402,-181 402,-181 402,-181 2973.27,-181 2973.27,-181"/>
<polygon fill="black" stroke="black" points="2973.27,-184.5 2983.27,-181 2973.27,-177.5 2973.27,-184.5"/>
</g>
<!-- AppComponent  -->
<g id="node35" class="node">
<title>AppComponent </title>
<polygon fill="#80b1d3" stroke="black" points="3079.44,-252 2970.56,-252 2970.56,-216 3079.44,-216 3079.44,-252"/>
<text text-anchor="middle" x="3025" y="-229.8" font-family="Times,serif" font-size="14.00">AppComponent </text>
</g>
<!-- AppModule&#45;&gt;AppComponent  -->
<g id="edge34" class="edge">
<title>AppModule&#45;&gt;AppComponent </title>
<path fill="none" stroke="black" stroke-dasharray="1,5" d="M3025,-187.11C3025,-187.11 3025,-205.99 3025,-205.99"/>
<polygon fill="black" stroke="black" points="3021.5,-205.99 3025,-215.99 3028.5,-205.99 3021.5,-205.99"/>
</g>
<!-- AppRoutingModule -->
<g id="node33" class="node">
<title>AppRoutingModule</title>
<polygon fill="#8dd3c7" stroke="black" points="298.27,-122 295.27,-126 274.27,-126 271.27,-122 169.73,-122 169.73,-86 298.27,-86 298.27,-122"/>
<text text-anchor="middle" x="234" y="-99.8" font-family="Times,serif" font-size="14.00">AppRoutingModule</text>
</g>
<!-- AppRoutingModule&#45;&gt;AppModule -->
<g id="edge32" class="edge">
<title>AppRoutingModule&#45;&gt;AppModule</title>
<path fill="none" stroke="black" d="M234,-122.32C234,-145.66 234,-183 234,-183 234,-183 2973.11,-183 2973.11,-183"/>
<polygon fill="black" stroke="black" points="2973.11,-186.5 2983.11,-183 2973.11,-179.5 2973.11,-186.5"/>
</g>
<!-- NgOptimizedImage -->
<g id="node34" class="node">
<title>NgOptimizedImage</title>
<polygon fill="#8dd3c7" stroke="black" points="151.69,-122 148.69,-126 127.69,-126 124.69,-122 24.31,-122 24.31,-86 151.69,-86 151.69,-122"/>
<text text-anchor="middle" x="88" y="-99.8" font-family="Times,serif" font-size="14.00">NgOptimizedImage</text>
</g>
<!-- NgOptimizedImage&#45;&gt;AppModule -->
<g id="edge33" class="edge">
<title>NgOptimizedImage&#45;&gt;AppModule</title>
<path fill="none" stroke="black" d="M88,-122.38C88,-146.28 88,-185 88,-185 88,-185 2973.2,-185 2973.2,-185"/>
<polygon fill="black" stroke="black" points="2973.2,-188.5 2983.2,-185 2973.2,-181.5 2973.2,-188.5"/>
</g>
</g>
</svg>
